{"title":"Match of the Day 2 - S10E05 - 13th September 2015 - 720p50 x264","uid":12413729,"size":1812146308,"categoryP":"video","categoryS":"hd___tv_shows","magnet":"?xt=urn:btih:f0cf19efa2105edcdbd7e1904c2c4cd6c2f32943&amp;dn=Match+of+the+Day+2+-+S10E05+-+13th+September+2015+-+720p50+x264&amp;tr=udp%3A%2F%2Ftracker.openbittorrent.com%3A80&amp;tr=udp%3A%2F%2Fopen.demonii.com%3A1337&amp;tr=udp%3A%2F%2Ftracker.coppersurfer.tk%3A6969&amp;tr=udp%3A%2F%2Fexodus.desync.com%3A6969","seeders":5,"leechers":0,"uploader":"rugbybill","files":2,"time":1442191185,"description":"SPORT: Match of the Day 2\nOn: BBC 1 HD    \nDate: Sunday 13th September 2015 \nTime: 22:30 to 23:35 \n\nMark Chapman presents highlights of the day's two Premier League matches, in which Sunderland host Tottenham and Leicester face Aston Villa in a Midlands derby. Sunderland will hope to put their early-season struggles behind them when they face Spurs at the Stadium of Light. Last season the Black Cats managed to rescue a point at home to Mauricio Pochettino's side after a late own goal from Harry Kane earned them a 2-2 draw. Leicester started the season in impressive form and will hope they can beat their Midlands rivals at home for the second successive season. Since that 1-0 victory in January, Claudio Ranieri has replaced Nigel Pearson as the Foxes' manager, while Tim Sherwood has taken over the Villa hot seat from Paul Lambert. There's also a chance to see all the goals and major incidents from Saturday's games.\n\n\n\nGeneral\nComplete name               : Match.of.the.Day.2-S10E05-2015.09.13-720p50.x264.mp4\nFormat                      : MPEG-4\nFormat profile              : Base Media / Version 2\nCodec ID                    : mp42\nFile size                   : 1.69 GiB\nDuration                    : 1h 4mn\nOverall bit rate mode       : Variable\nOverall bit rate            : 3 748 Kbps\nWriting application         : #YGFD                     \n\nVideo\nID                          : 1\nFormat                      : AVC\nFormat/Info                 : Advanced Video Codec\nFormat profile              : &lt;a class=&quot;__cf_email__&quot; href=&quot;/cdn-cgi/l/email-protection&quot; data-cfemail=&quot;a2eacbc5cae2ee918c90&quot;&gt;[email&amp;#160;protected]&lt;/a&gt;&lt;script data-cfhash='f9e31' type=&quot;text/javascript&quot;&gt;\n/* &lt;![CDATA[ */!function(){try{var t=&quot;currentScript&quot;in document?document.currentScript:function(){for(var t=document.getElementsByTagName(&quot;script&quot;),e=t.length;e--;)if(t[e].getAttribute(&quot;data-cfhash&quot;))return t[e]}();if(t&amp;&amp;t.previousSibling){var e,r,n,i,c=t.previousSibling,a=c.getAttribute(&quot;data-cfemail&quot;);if(a){for(e=&quot;&quot;,r=parseInt(a.substr(0,2),16),n=2;a.length-n;n+=2)i=parseInt(a.substr(n,2),16)^r,e+=String.fromCharCode(i);e=document.createTextNode(e),c.parentNode.replaceChild(e,c)}t.parentNode.removeChild(t);}}catch(u){}}()/* ]]&gt; */&lt;/script&gt;\nFormat settings, CABAC      : Yes\nFormat settings, ReFrames   : 5 frames\nCodec ID                    : avc1\nCodec ID/Info               : Advanced Video Coding\nDuration                    : 1h 4mn\nBit rate                    : 3 581 Kbps\nWidth                       : 1 280 pixels\nHeight                      : 720 pixels\nDisplay aspect ratio        : 16:9\nFrame rate mode             : Constant\nFrame rate                  : 50.000 fps\nColor space                 : YUV\nChroma subsampling          : 4:2:0\nBit depth                   : 8 bits\nScan type                   : Progressive\nBits/(Pixel*Frame)          : 0.078\nStream size                 : 1.61 GiB (96%)\nWriting library             : x264 core 130 r2273 b3065e6\nEncoding settings           : cabac=1 / ref=5 / deblock=1:0:0 / analyse=0x3:0x113 / me=umh / subme=8 / psy=1 / psy_rd=1.00:0.00 / mixed_ref=1 / me_range=16 / chroma_me=1 / trellis=1 / 8x8dct=1 / cqm=0 / deadzone=21,11 / fast_pskip=1 / chroma_qp_offset=-2 / threads=24 / lookahead_threads=4 / sliced_threads=0 / nr=0 / decimate=1 / interlaced=0 / bluray_compat=0 / constrained_intra=0 / bframes=3 / b_pyramid=2 / b_adapt=2 / b_bias=0 / direct=3 / weightb=1 / open_gop=0 / weightp=2 / keyint=500 / keyint_min=50 / scenecut=40 / intra_refresh=0 / rc_lookahead=50 / rc=crf / mbtree=1 / crf=23.0 / qcomp=0.60 / qpmin=0 / qpmax=69 / qpstep=4 / ip_ratio=1.40 / aq=1:1.00\n\nAudio\nID                          : 2\nFormat                      : AAC\nFormat/Info                 : Advanced Audio Codec\nFormat profile              : LC\nCodec ID                    : 40\nDuration                    : 1h 4mn\nBit rate mode               : Variable\nBit rate                    : 160 Kbps\nMaximum bit rate            : 317 Kbps\nChannel(s)                  : 2 channels\nChannel positions           : Front: L R\nSampling rate               : 48.0 KHz\nCompression mode            : Lossy\nStream size                 : 73.7 MiB (4%)\nTitle                       : Stereo\nLanguage                    : English","torrent":{"xt":"urn:btih:f0cf19efa2105edcdbd7e1904c2c4cd6c2f32943","amp;dn":"Match+of+the+Day+2+-+S10E05+-+13th+September+2015+-+720p50+x264","amp;tr":["udp%3A%2F%2Ftracker.openbittorrent.com%3A80","udp%3A%2F%2Fopen.demonii.com%3A1337","udp%3A%2F%2Ftracker.coppersurfer.tk%3A6969","udp%3A%2F%2Fexodus.desync.com%3A6969"],"infoHash":"f0cf19efa2105edcdbd7e1904c2c4cd6c2f32943","infoHashBuffer":{"type":"Buffer","data":[240,207,25,239,162,16,94,220,219,215,225,144,76,44,76,214,194,243,41,67]},"announce":[],"urlList":[]}}